# bonyoze was here
# Blender v2.81 (sub 16) OBJ File: ''
# www.blender.org
mtllib monitor.mtl
o monitor02_reference
v -11.061726 -9.784452 9.204889
v -10.898921 8.402559 9.098300
v -10.838489 10.039544 9.002718
v 7.166743 -3.817565 -12.882421
v -7.963669 -4.885922 -4.429329
v -7.160314 -3.834492 -12.901797
v 7.949662 -4.867122 -4.407806
v -8.198722 -5.577783 -1.660839
v 8.178858 -5.558433 -1.638689
v -8.301043 -6.795594 0.708550
v 8.277647 -6.776006 0.730972
v 8.448422 -9.614118 3.375667
v -8.472264 -9.634109 3.352785
v 7.472632 -10.041203 2.251770
v 10.507750 10.024156 3.111732
v 10.531437 -10.065385 3.147641
v 7.449068 9.944662 2.216047
v -0.009490 -10.050582 1.939458
v -0.033008 9.895988 1.903806
v -7.492430 -10.058884 2.231531
v -7.515995 9.926980 2.195808
v -10.577269 9.999244 3.083216
v -10.553582 -10.090296 3.119125
v 5.138739 -6.160430 -10.079069
v -5.132839 -7.632612 -9.948787
v -5.134370 -6.172570 -10.092963
v 5.140270 -7.620477 -9.934894
v -7.172229 6.549799 -13.162120
v 7.935502 7.142813 -4.429273
v 7.154826 6.566725 -13.142743
v -7.977831 7.124012 -4.450795
v 8.428344 7.415645 3.345228
v -8.492343 7.395654 3.322346
v -7.190161 3.171511 2.407233
v -6.119425 -8.730712 -9.841798
v -7.174923 -9.752760 2.430332
v -6.131315 2.613413 -10.962027
v 6.117268 2.627884 -10.945460
v 7.153866 -9.735832 2.449710
v 6.129154 -8.716240 -9.825234
v 7.138628 3.188441 2.426611
v -10.956011 10.146098 6.698276
v -11.194702 -10.104001 6.734117
v 9.199718 -11.251927 8.715398
v 9.588522 -8.017938 5.786195
v 9.584561 -8.012715 8.710135
v 9.202110 -9.929502 5.789084
v -9.626608 -8.035413 8.684153
v -9.231730 -9.951280 5.764154
v -9.234125 -11.273705 8.690467
v -9.622649 -8.040635 5.760211
v -0.017460 -11.398706 9.011381
v -0.071782 10.043948 9.238642
v -0.069534 8.415762 9.340331
v 10.816902 8.428216 9.127669
v 10.752866 10.065053 9.031830
v -0.051620 -6.776417 9.367486
v -0.045812 -6.452470 9.140407
v -8.616931 -6.462986 8.912601
v -10.881008 -6.789618 9.125454
v -8.633965 7.982756 8.886779
v -0.062845 7.993268 9.114585
v 8.553525 8.003061 8.910024
v 8.570558 -6.442678 8.935845
v 11.119268 -6.763960 9.154823
v 11.144303 -9.758360 9.234755
v -0.048673 -9.770991 9.451023
v -0.021440 -8.023515 9.005348
v 11.162808 -10.077584 6.764351
v 10.876363 10.171893 6.727801
v -0.065038 4.083930 9.524546
v 8.565568 -2.210963 8.928283
v 8.558193 4.044261 8.917102
v -8.629258 3.990838 8.893916
v -0.046955 -2.166108 9.533833
v -8.621940 -2.216187 8.905012
vt 0.805908 0.991934
vt 0.806611 0.701305
vt 0.808111 0.675153
vt 0.576619 0.031751
vt 0.334493 0.168197
vt 0.347194 0.031751
vt 0.589320 0.168197
vt 0.330776 0.213609
vt 0.593037 0.213609
vt 0.329166 0.253956
vt 0.594648 0.253956
vt 0.597387 0.302496
vt 0.326429 0.302496
vt 0.884320 0.632315
vt 0.901723 0.310915
vt 0.901091 0.632011
vt 0.884949 0.312876
vt 0.643476 0.486153
vt 0.602670 0.365681
vt 0.650733 0.366665
vt 0.595508 0.485171
vt 0.645786 0.605838
vt 0.597723 0.604854
vt 0.922206 0.996764
vt 0.902903 0.675314
vt 0.921394 0.677335
vt 0.903720 0.996400
vt 0.799370 0.036979
vt 0.634863 0.042723
vt 0.634863 0.036979
vt 0.799371 0.042723
vt 0.590676 0.835578
vt 0.450924 0.593874
vt 0.590676 0.606553
vt 0.450924 0.848257
vt 0.326362 0.585823
vt 0.326362 0.856309
vt 0.576616 0.002995
vt 0.347191 0.002995
vt 0.002069 0.854234
vt 0.192292 0.657362
vt 0.208995 0.854234
vt 0.010605 0.639845
vt 0.802678 0.672103
vt 0.595913 0.878268
vt 0.620437 0.682333
vt 0.802678 0.886601
vt 0.619047 0.047038
vt 0.831844 0.243486
vt 0.602391 0.243486
vt 0.815188 0.047038
vt 0.844695 0.673194
vt 0.845152 0.996764
vt 0.317396 0.412455
vt 0.270635 0.360830
vt 0.317396 0.360584
vt 0.270505 0.391482
vt 0.317369 0.465374
vt 0.270505 0.434302
vt 0.317369 0.413493
vt 0.270726 0.464965
vt 0.889377 0.297621
vt 0.839893 0.002947
vt 0.889377 0.002947
vt 0.839893 0.297622
vt 0.834685 0.150284
vt 0.029363 0.006535
vt 0.003259 0.179618
vt 0.003174 0.007551
vt 0.029307 0.179604
vt 0.029363 0.353653
vt 0.003174 0.352679
vt 0.272557 0.179563
vt 0.267420 0.179697
vt 0.267473 0.042725
vt 0.272613 0.006495
vt 0.036174 0.042763
vt 0.036121 0.179736
vt 0.036174 0.317498
vt 0.267473 0.317459
vt 0.272613 0.353613
vt 0.320546 0.356535
vt 0.320488 0.179534
vt 0.320545 0.003530
vt 0.211605 0.794349
vt 0.265496 0.947854
vt 0.213641 0.941625
vt 0.265647 0.794367
vt 0.265647 0.640772
vt 0.213787 0.646968
vt 0.959437 0.632315
vt 0.959859 0.308727
vt 0.998855 0.627428
vt 0.619043 0.002411
vt 0.815184 0.002411
vt 0.267389 0.634979
vt 0.225038 0.589548
vt 0.267389 0.362787
vt 0.187096 0.570012
vt 0.142646 0.366945
vt 0.142646 0.558903
vt 0.002647 0.375982
vt 0.006514 0.541967
vt 0.874943 0.310157
vt 0.882000 0.482165
vt 0.882000 0.655234
vt 0.845232 0.657910
vt 0.838095 0.308981
vt 0.780285 0.316134
vt 0.787178 0.653119
vt 0.771870 0.604505
vt 0.764567 0.485017
vt 0.766977 0.365331
vt 0.591197 0.308213
vt 0.591197 0.580396
vt 0.548854 0.353670
vt 0.510948 0.373231
vt 0.466475 0.384366
vt 0.466475 0.576319
vt 0.330224 0.401382
vt 0.326368 0.567365
vt 0.761731 0.312040
vt 0.761731 0.489050
vt 0.723419 0.309065
vt 0.754429 0.664991
vt 0.716027 0.666385
vt 0.665929 0.318052
vt 0.658959 0.655035
vt 0.997609 0.579608
vt 0.998087 0.336788
vt 0.996603 0.310634
vt 0.496094 0.730469
vt 1.000000 0.294922
vt 1.000000 0.730469
vt 1.000000 1.000000
vt 0.496094 1.000000
vt -0.000000 1.000000
vt -0.000000 0.730469
vt 0.496094 0.294922
vt 1.000000 -0.000000
vt 0.496094 -0.000000
vt -0.000000 0.294922
vt -0.000000 -0.000000
vn -0.9761 0.0088 -0.2169
vn -0.8827 0.0051 -0.4699
vn -0.9762 0.0088 -0.2169
vn 0.0013 -0.9924 -0.1230
vn 0.0014 -0.9831 -0.1829
vn 0.0016 -0.9360 -0.3521
vn 0.0018 -0.7974 -0.6034
vn 0.0018 -0.6817 -0.7316
vn 0.1619 -0.0016 -0.9868
vn 0.2811 -0.0014 -0.9597
vn 0.1622 -0.0016 -0.9868
vn 0.0014 -0.0018 -1.0000
vn -0.1603 -0.0020 -0.9871
vn -0.1602 -0.0020 -0.9871
vn -0.2785 -0.0020 -0.9604
vn 0.0015 -0.0983 -0.9952
vn -0.0011 0.9978 -0.0659
vn -0.0011 0.9987 -0.0510
vn -0.0011 0.9987 -0.0504
vn -0.0011 0.9994 -0.0350
vn -0.0011 0.9987 -0.0505
vn 0.0014 -0.0251 -0.9997
vn -0.9966 -0.0054 -0.0819
vn -0.9966 -0.0045 -0.0827
vn -0.9966 -0.0050 -0.0822
vn -0.9966 -0.0049 -0.0823
vn 0.9968 -0.0026 -0.0795
vn 0.9968 -0.0027 -0.0797
vn 0.0013 -0.9966 -0.0829
vn -0.9902 0.0050 -0.1398
vn -0.9990 0.0085 -0.0442
vn 0.9885 -0.1476 -0.0318
vn 0.9884 -0.1481 -0.0323
vn -0.9880 -0.1504 -0.0349
vn 0.0016 -0.9113 -0.4118
vn 0.0016 -0.9132 -0.4076
vn 0.0016 -0.9132 -0.4075
vn 0.0016 -0.9151 -0.4032
vn 0.1106 -0.1144 0.9873
vn -0.0015 0.0607 0.9982
vn -0.0221 0.0607 0.9979
vn -0.0011 -0.2311 0.9729
vn -0.0200 -0.1523 0.9881
vn 0.0191 0.0606 0.9980
vn -0.0019 0.3335 0.9428
vn -0.0020 0.6070 0.7947
vn 0.0388 0.3218 0.9460
vn 0.1117 0.1683 0.9794
vn 0.0379 -0.2601 0.9648
vn -0.0006 -0.5031 0.8642
vn -0.0399 -0.2600 0.9648
vn -0.0425 0.3215 0.9460
vn -0.0070 -0.1526 0.9883
vn -0.0380 0.3309 0.9429
vn 0.7339 0.2359 0.6369
vn 0.6492 -0.0798 0.7565
vn -0.0015 0.0279 0.9996
vn 0.1790 0.0153 0.9837
vn -0.0013 -0.0001 1.0000
vn -0.0341 -0.0001 0.9994
vn -0.0014 0.0000 1.0000
vn -0.0342 -0.0003 0.9994
vn 0.0314 0.0000 0.9995
vn 0.0314 -0.0001 0.9995
vn 0.9905 0.0074 -0.1371
vn 0.9978 0.0107 -0.0652
vn 0.9991 0.0097 -0.0412
vn 0.9980 0.0011 -0.0633
vn 0.9986 -0.0008 -0.0531
vn 0.9983 0.0008 -0.0581
vn 0.9985 0.0008 -0.0555
vn 0.9968 0.0021 -0.0794
vn 0.9968 0.0021 -0.0793
vn 0.9959 0.0002 -0.0904
vn 0.9959 -0.0001 -0.0907
vn -0.0012 0.9991 0.0419
vn -0.0012 0.9993 0.0375
vn -0.0012 1.0000 0.0028
vn -0.0008 0.9970 -0.0771
vn -0.0011 0.9980 -0.0628
vn -0.0016 0.9955 -0.0952
vn -0.0005 0.9958 -0.0914
vn 0.0011 0.9970 -0.0774
vn -0.9978 -0.0013 -0.0660
vn -0.9982 -0.0015 -0.0607
vn -0.9984 -0.0032 -0.0558
vn -0.9983 -0.0016 -0.0583
vn -0.9984 -0.0032 -0.0559
vn -0.9966 -0.0003 -0.0820
vn -0.9966 -0.0002 -0.0822
vn -0.9957 -0.0025 -0.0931
vn -0.9956 -0.0023 -0.0933
vn 0.0036 -0.9917 0.1282
vn 0.0012 -0.9930 0.1184
vn 0.0025 -0.9958 0.0915
vn -0.0001 -0.9930 0.1183
vn 0.0011 -0.9981 0.0624
vn 0.0012 -0.9998 -0.0174
vn 0.0010 -0.9998 -0.0219
vn 0.0016 -0.9997 -0.0237
vn 0.0008 -0.9997 -0.0264
vn -0.0003 -0.9993 -0.0364
vn 0.9789 0.1936 0.0648
vn 0.9977 0.0380 0.0555
vn -0.0016 0.0273 0.9996
vn 0.0585 -0.0217 0.9981
vn 0.0587 0.0273 0.9979
vn 0.0471 0.0529 0.9975
vn -0.0016 0.0528 0.9986
vn -0.0503 0.0526 0.9973
vn -0.0618 0.0271 0.9977
vn -0.0015 -0.0218 0.9998
vn 0.0468 -0.0452 0.9979
vn -0.0014 -0.0452 0.9990
vn -0.0615 -0.0219 0.9979
vn -0.0497 -0.0452 0.9977
usemtl base
s 1
f 1/1/1 2/2/2 3/3/3
f 4/4/4 5/5/5 6/6/4
f 4/4/4 7/7/5 5/5/5
f 7/7/5 8/8/6 5/5/5
f 7/7/5 9/9/6 8/8/6
f 10/10/7 8/8/6 9/9/6
f 10/10/7 9/9/6 11/11/7
f 10/10/7 11/11/7 12/12/8
f 10/10/7 12/12/8 13/13/8
f 14/14/9 15/15/10 16/16/10
f 14/14/9 17/17/11 15/15/10
f 18/18/12 17/19/11 14/20/9
f 18/18/12 19/21/12 17/19/11
f 20/22/13 19/21/12 18/18/12
f 20/22/13 21/23/14 19/21/12
f 20/24/13 22/25/15 21/26/14
f 20/24/13 23/27/15 22/25/15
f 24/28/16 25/29/16 26/30/16
f 24/28/16 27/31/16 25/29/16
f 28/32/17 29/33/18 30/34/17
f 28/32/17 31/35/19 29/33/18
f 32/36/20 29/33/18 31/35/19
f 32/36/20 31/35/21 33/37/20
f 6/6/22 30/38/22 4/4/22
f 6/6/22 28/39/22 30/38/22
f 34/40/23 35/41/24 36/42/25
f 34/40/23 37/43/26 35/41/24
f 38/44/27 39/45/27 40/46/27
f 38/44/28 41/47/28 39/45/28
f 35/48/29 39/49/29 36/50/29
f 35/48/29 40/51/29 39/49/29
f 23/27/30 42/52/31 22/25/30
f 23/27/30 43/53/31 42/52/31
f 43/53/31 3/3/3 42/52/31
f 43/53/31 1/1/1 3/3/3
f 44/54/32 45/55/33 46/56/33
f 44/54/32 47/57/33 45/55/33
f 48/58/34 49/59/34 50/60/34
f 48/58/34 51/61/34 49/59/34
f 47/62/35 50/63/36 49/64/35
f 47/62/35 44/65/37 50/63/37
f 50/63/37 44/65/37 52/66/38
f 2/67/39 53/68/40 3/69/41
f 2/67/39 54/70/42 53/68/40
f 53/68/40 54/70/42 55/71/43
f 53/68/40 55/71/43 56/72/44
f 57/73/45 58/74/46 59/75/47
f 57/73/45 59/75/47 60/76/48
f 60/76/48 59/75/47 61/77/49
f 60/76/48 61/77/49 2/67/39
f 2/67/39 61/77/49 62/78/50
f 2/67/39 62/78/50 54/70/42
f 54/70/42 62/78/50 63/79/51
f 54/70/42 63/79/51 55/71/43
f 55/71/43 63/79/51 64/80/52
f 55/71/53 64/80/54 65/81/55
f 58/74/46 65/81/55 64/80/54
f 58/74/46 57/73/45 65/81/55
f 66/82/56 65/81/55 57/73/45
f 66/82/56 57/73/45 67/83/57
f 67/83/57 57/73/45 60/76/48
f 67/83/57 60/76/48 1/84/58
f 1/84/58 60/76/48 2/67/39
f 52/85/59 48/86/60 50/87/60
f 52/85/59 68/88/61 48/86/62
f 46/89/63 68/88/61 52/85/59
f 46/89/63 52/85/59 44/90/64
f 15/15/65 69/91/66 16/16/65
f 15/15/65 70/92/67 69/91/66
f 70/92/67 66/93/56 69/91/66
f 37/94/16 26/30/16 25/29/16
f 24/28/16 26/30/16 37/94/16
f 24/28/16 37/94/16 38/95/16
f 40/51/16 24/28/16 38/95/16
f 40/51/16 27/31/16 24/28/16
f 40/51/16 25/29/16 27/31/16
f 40/51/16 35/48/16 25/29/16
f 37/94/16 25/29/16 35/48/16
f 12/96/68 11/97/69 32/98/70
f 9/99/71 32/98/70 11/97/69
f 29/100/72 32/98/70 9/99/71
f 29/100/72 9/99/71 7/101/73
f 30/102/74 29/100/72 7/101/73
f 30/102/74 7/101/73 4/103/75
f 3/104/76 53/105/77 56/106/76
f 70/107/78 3/104/76 56/106/76
f 70/107/78 42/108/78 3/104/76
f 70/107/78 22/109/79 42/108/78
f 70/107/78 15/110/80 22/109/79
f 22/109/79 15/110/80 17/111/81
f 22/109/79 17/111/81 19/112/82
f 22/109/79 19/112/82 21/113/83
f 13/114/84 33/115/85 10/116/86
f 33/115/85 8/117/87 10/116/88
f 5/118/89 8/117/87 33/115/85
f 5/118/89 33/115/85 31/119/90
f 6/120/91 5/118/89 31/119/90
f 6/120/91 31/119/90 28/121/92
f 66/122/93 67/123/94 69/124/95
f 1/125/96 69/124/95 67/123/94
f 1/125/96 43/126/97 69/124/95
f 16/127/98 69/124/95 43/126/97
f 16/127/98 43/126/97 23/128/99
f 23/128/99 14/20/100 16/127/98
f 23/128/99 18/18/101 14/20/100
f 23/128/99 20/22/102 18/18/101
f 65/129/55 66/93/56 70/92/67 55/130/103
f 56/131/104 55/130/103 70/92/67
usemtl screen
f 71/132/105 72/133/106 73/134/107
f 73/134/107 63/135/108 62/136/109
f 73/134/107 62/136/109 71/132/105
f 71/132/105 62/136/109 61/137/110
f 71/132/105 61/137/110 74/138/111
f 75/139/112 71/132/105 74/138/111
f 71/132/105 75/139/112 72/133/106
f 64/140/113 72/133/106 75/139/112
f 64/140/113 75/139/112 58/141/114
f 76/142/115 58/141/114 75/139/112
f 76/142/115 59/143/116 58/141/114
f 75/139/112 74/138/111 76/142/115
